# xmcd
#
# Track frame offsets:
# 150
# 14892
# 27295
# 40662
# 52268
# 66238
# 80597
# 98853
# 111483
# 125035
# 145957
# 156925
# 178391
# 196431
# 206641
# 221892
# 232332
# 242082
# 258785
# 271951
# 283364
# 300749
# 313503
# 328780
# 341247
#
# Disc length: 4716 seconds
#
#
# Revision: 2
# Processed by: cddbd v1.4PL0 Copyright (c) Steve Scherf et al.
# Submitted via: FreeRIP 2.00 
#
DISCID=9f126a19
DTITLE=Merle Haggard - Live At Church Street Station
DYEAR=1996
DGENRE=Country
TTITLE0=Twinkle, Twinkle Lucky Star
TTITLE1=If You Want To Be My Woman
TTITLE2=Workin' Man Blues
TTITLE3=Always Late (With Your Kisses)
TTITLE4=T.B. Blues
TTITLE5=Folsom Prison Blues
TTITLE6=Footlights
TTITLE7=Big City
TTITLE8=Mama Tried
TTITLE9=Brain Cloudy Blues - Milk Cow Blues 
TTITLE10=Begging To You
TTITLE11=The Bottle Let Me Down
TTITLE12=What Am I Gonna Do With The Rest Of My Life
TTITLE13=Ida Red
TTITLE14=San Antonio Rose
TTITLE15=Corrine Corrina
TTITLE16=Take Me Back To Tulsa
TTITLE17=Faded Love
TTITLE18=Fiddle Breakdown (Instrumental)
TTITLE19=Right Or Wrong
TTITLE20=Ramblin' Fever
TTITLE21=That's The Way Love Goes
TTITLE22=Today I Started Loving You Again
TTITLE23=Okie From Muskogee
TTITLE24=Fightin' Side Of Me
EXTD=
EXTT0=
EXTT1=
EXTT2=
EXTT3=
EXTT4=
EXTT5=
EXTT6=
EXTT7=
EXTT8=
EXTT9=
EXTT10=
EXTT11=
EXTT12=
EXTT13=
EXTT14=
EXTT15=
EXTT16=
EXTT17=
EXTT18=
EXTT19=
EXTT20=
EXTT21=
EXTT22=
EXTT23=
EXTT24=
PLAYORDER=
